<?xml version="1.0" encoding="UTF-8"?><svg id="Layer_1" xmlns="http://www.w3.org/2000/svg" width="72" height="72" viewBox="0 0 72 72"><defs><style>.cls-1{fill:#c69c6c;}</style></defs><path class="cls-1" d="M60.5205,34.2104c0,5.7104-1.0781,10.5688-3.2344,14.5737-2.1562,4.0059-5.0879,7.0615-8.7949,9.166-3.708,2.1055-7.8711,3.1572-12.4902,3.1572-4.6533,0-8.8301-1.0566-12.5283-3.1699-3.6992-2.1133-6.6221-5.1738-8.7705-9.1787-2.1475-4.0059-3.2207-8.8545-3.2207-14.5483,0-5.7104,1.0732-10.5684,3.2207-14.5742,2.1484-4.0054,5.0713-7.0605,8.7705-9.166,3.6982-2.105,7.875-3.1577,12.5283-3.1577,4.6191,0,8.7822,1.0527,12.4902,3.1577,3.707,2.1055,6.6387,5.1606,8.7949,9.166,2.1562,4.0059,3.2344,8.8638,3.2344,14.5742Zm-11.2246,0c0-3.6987-.5488-6.8179-1.6484-9.3579s-2.6465-4.4658-4.6406-5.7788c-1.9941-1.312-4.3301-1.9688-7.0059-1.9688s-5.0117,.6567-7.0059,1.9688c-1.9941,1.313-3.541,3.2388-4.6406,5.7788s-1.6494,5.6592-1.6494,9.3579,.5498,6.8188,1.6494,9.3579c1.0996,2.54,2.6465,4.4658,4.6406,5.7783s4.3291,1.9688,7.0059,1.9688,5.0117-.6562,7.0059-1.9688,3.541-3.2383,4.6406-5.7783c1.0996-2.5391,1.6484-5.6592,1.6484-9.3579Zm-17.1299,7.9771h9.4092l4.7295,6.0859,4.6533,5.4199,8.7695,10.9941h-10.3291l-6.0342-7.4141-3.0938-4.3984-8.1045-10.6875Z"/></svg>